<svg width="41" height="23" viewBox="0 0 41 23" fill="none" xmlns="http://www.w3.org/2000/svg">
<path fill-rule="evenodd" clip-rule="evenodd" d="M0 0H41V23H0V0Z" fill="#229E45"/>
<path fill-rule="evenodd" clip-rule="evenodd" d="M20.5899 20.8915L39.9048 11.5143L20.4746 2.10822L1.0957 11.5334L20.5899 20.8915Z" fill="#F8E509"/>
<path fill-rule="evenodd" clip-rule="evenodd" d="M29.0067 11.5C29.0067 14.8685 25.3488 17.5998 20.8323 17.5998C19.2184 17.5979 17.6415 17.2381 16.3009 16.566C14.9602 15.8938 13.9162 14.9395 13.3006 13.8236C12.685 12.7076 12.5256 11.4803 12.8425 10.2966C13.1593 9.11293 13.9383 8.0261 15.0809 7.17351C16.2234 6.32092 17.6783 5.74084 19.2616 5.50661C20.8448 5.27238 22.4854 5.39452 23.9758 5.85757C25.4663 6.32063 26.7398 7.10382 27.6353 8.10813C28.5307 9.11245 29.008 10.2928 29.0067 11.5Z" fill="#2B49A3"/>
<path fill-rule="evenodd" clip-rule="evenodd" d="M18.1485 15.1557L17.8922 15.0455L17.636 15.1414L17.6936 14.9257L17.4886 14.7628L17.7769 14.7389L17.9179 14.5472L18.0396 14.7484L18.3214 14.7868L18.11 14.9305M23.6194 16.1907L23.3696 16.0805L23.1133 16.1764L23.1646 15.9607L22.966 15.8026L23.2543 15.7787L23.3888 15.5822L23.5169 15.7834L23.7988 15.8218L23.581 15.9703M21.2619 14.5328L21.0441 14.437L20.8199 14.5232L20.8711 14.3364L20.6918 14.1974L20.948 14.1782L21.0633 14.0057L21.1658 14.183L21.4157 14.2166L21.2235 14.3459M26.7969 13.9387L26.5791 13.8428L26.3549 13.9291L26.4061 13.7422L26.2332 13.608L26.483 13.5889L26.5983 13.4212L26.7008 13.5937L26.9443 13.6272L26.7585 13.7518M21.1658 12.6976L20.9096 12.5922L20.6533 12.688L20.7046 12.4676L20.506 12.3095L20.7943 12.2855L20.9288 12.0891L21.0569 12.2903L21.3388 12.3287L21.121 12.482M14.42 10.8049L14.1638 10.6995L13.9075 10.7953L13.9716 10.5749L13.7602 10.4168L14.0549 10.3928L14.183 10.1964L14.3111 10.3976L14.593 10.4359L14.3816 10.5845M15.2336 13.3253L14.9774 13.2151L14.7211 13.3109L14.7788 13.0953L14.5738 12.9372L14.8621 12.9084L14.9966 12.7168L15.1247 12.918L15.4066 12.9564L15.1952 13.1049M23.6514 9.88011L23.4208 9.78428L23.1902 9.87053L23.2414 9.67886L23.0621 9.53511L23.3183 9.51115L23.44 9.33865L23.5489 9.52074L23.8052 9.55428L23.613 9.68365M23.1838 11.5189L23.0108 11.4422L22.825 11.5093L22.8635 11.3559L22.7225 11.2457L22.9275 11.2266L23.0236 11.0924L23.1069 11.2362L23.2991 11.2601L23.1582 11.3655M14.0485 13.7805L13.8755 13.7087L13.7025 13.7709L13.741 13.6272L13.6064 13.5218L13.7986 13.5026L13.8883 13.3732L13.9716 13.5074L14.1638 13.5362L14.0164 13.632M26.8418 14.3651L26.7008 14.3124L26.5599 14.3603L26.5919 14.2501L26.483 14.1734L26.6368 14.1591L26.7136 14.0632L26.7777 14.1591L26.9379 14.183L26.8161 14.2549" fill="#FFFFEF"/>
<path fill-rule="evenodd" clip-rule="evenodd" d="M14.0485 13.7808L13.8755 13.7089L13.7025 13.7712L13.741 13.6275L13.6064 13.522L13.7986 13.5029L13.8883 13.3735L13.9716 13.5077L14.1638 13.5364L14.0164 13.6323" fill="#FFFFEF"/>
<path fill-rule="evenodd" clip-rule="evenodd" d="M14.0485 13.781L13.8755 13.7091L13.7025 13.7714L13.741 13.6276L13.6064 13.5222L13.7986 13.503L13.8883 13.3737L13.9716 13.5078L14.1638 13.5366L14.0164 13.6324M16.7263 13.7762L16.5597 13.7091L16.3868 13.7714L16.4252 13.6276L16.2907 13.5222L16.4829 13.503L16.5725 13.3737L16.6558 13.5078L16.848 13.5318L16.7007 13.6324M16.3932 14.447L16.2266 14.3751L16.0536 14.4422L16.0921 14.2985L15.9575 14.1882L16.1497 14.1691L16.2394 14.0397L16.3227 14.1739L16.5149 14.2026L16.3675 14.2985M21.9666 13.2347L21.8 13.158L21.6207 13.2251L21.6591 13.0814L21.531 12.9712L21.7232 12.9568L21.8129 12.8274L21.8897 12.9616L22.0819 12.9855L21.941 13.0862M20.333 13.2299L20.16 13.158L19.9871 13.2251L20.0255 13.0814L19.8974 12.9712L20.0896 12.9568L20.1793 12.8226L20.2561 12.9616L20.4483 12.9855L20.3074 13.0862M15.8999 12.8082L15.791 12.7603L15.6821 12.7987L15.7077 12.7076L15.6244 12.6405L15.7461 12.631L15.7974 12.5495L15.8486 12.6357L15.9704 12.6501L15.8807 12.7124M26.6304 14.8878L26.4638 14.816L26.2908 14.883L26.3293 14.7393L26.1947 14.6291L26.3869 14.6099L26.4766 14.4805L26.5599 14.6147L26.7521 14.6435L26.6047 14.7393M25.2722 15.0268L25.1313 14.9597L24.9839 15.0172L25.016 14.8926L24.9071 14.8064L25.0672 14.792L25.1441 14.6818L25.2082 14.7968L25.3683 14.816L25.2466 14.9022M25.9129 15.0124L25.7847 14.9549L25.6502 15.0028L25.6758 14.8926L25.5733 14.8112L25.7207 14.7968L25.7911 14.701L25.8552 14.7968L26.0025 14.8207L25.8936 14.8974M27.7579 13.8049L27.6297 13.757L27.5016 13.8049L27.5336 13.6947L27.4311 13.6132L27.5785 13.5989L27.6425 13.503L27.7066 13.6037L27.8411 13.6228L27.7386 13.6995M25.253 15.7024L25.0929 15.6353L24.9199 15.6928L24.9583 15.5587L24.8302 15.4628L25.0224 15.4485L25.1057 15.3287L25.1825 15.4532L25.3747 15.4772L25.2274 15.5682M25.2658 16.2487L25.1121 16.1816L24.9583 16.2439L24.9968 16.1097L24.875 16.0139L25.048 15.9947L25.1249 15.8749L25.1954 15.9995L25.3683 16.0235L25.2402 16.1193M24.023 15.0124L23.9013 14.9549L23.7732 15.0028L23.7988 14.8974L23.7027 14.816L23.8436 14.8064L23.9077 14.7105L23.9718 14.8064L24.1127 14.8255L24.0102 14.9022M22.8699 15.0124L22.7418 14.9549L22.6136 15.0028L22.6457 14.8974L22.5432 14.816L22.6905 14.8064L22.7546 14.7105L22.8186 14.8064L22.9532 14.8255L22.8507 14.9022M20.9032 13.7235L20.775 13.6707L20.6469 13.7187L20.6789 13.6085L20.5764 13.5318L20.7174 13.5174L20.7814 13.4216L20.8455 13.5174L20.9864 13.5414L20.8839 13.6132M21.121 16.3445L21.0185 16.3014L20.9032 16.3445L20.9288 16.2487L20.8455 16.1816L20.9672 16.172L21.0249 16.0905L21.0761 16.1768L21.1979 16.1912L21.1082 16.2535M18.1485 12.1039L17.8922 11.9937L17.636 12.0895L17.6936 11.8739L17.4886 11.7157L17.7769 11.687L17.9179 11.4953L18.0396 11.6966L18.3214 11.7349L18.11 11.8835" fill="#FFFFEF"/>
<path fill-rule="evenodd" clip-rule="evenodd" d="M28.4686 13.6947C28.6273 13.3867 28.7516 13.0693 28.8402 12.7459C24.4967 9.8949 19.66 8.43344 13.5484 8.73532C13.3268 9.05612 13.1445 9.39132 13.0039 9.73677C20.243 9.21927 25.5602 11.6151 28.4686 13.6947Z" fill="white"/>
<path d="M26.522 12.094L26.6693 12.1563C26.6473 12.1888 26.6405 12.2259 26.6501 12.2617C26.6651 12.2964 26.6971 12.3255 26.7398 12.3432C26.7846 12.3671 26.8295 12.3815 26.8679 12.3767C26.9063 12.3767 26.932 12.3623 26.9512 12.3432C26.9623 12.3304 26.9669 12.3151 26.964 12.3C26.9587 12.2823 26.9477 12.2659 26.932 12.2521C26.9191 12.2377 26.8871 12.2042 26.8359 12.1659C26.7832 12.1252 26.7437 12.076 26.7205 12.0221C26.7046 11.9813 26.7087 11.9376 26.7322 11.8989C26.7557 11.8602 26.7971 11.8291 26.8487 11.8113C26.8953 11.7967 26.9468 11.7934 26.996 11.8017C27.0562 11.8121 27.1129 11.8317 27.1626 11.8592C27.2523 11.9071 27.3099 11.955 27.3291 12.0125C27.338 12.0394 27.3392 12.0674 27.3325 12.0947C27.3259 12.1219 27.3117 12.1478 27.2907 12.1707L27.137 12.0988C27.1562 12.07 27.1626 12.0413 27.1498 12.0173C27.1434 11.9934 27.1177 11.9694 27.0729 11.9502C27.04 11.9304 26.9997 11.9187 26.9576 11.9167C26.946 11.9164 26.9345 11.9185 26.9243 11.9227C26.9142 11.9269 26.9057 11.9331 26.8999 11.9407C26.8871 11.955 26.8871 11.9694 26.8935 11.9886C26.8999 12.0077 26.932 12.0461 26.996 12.094C27.0601 12.1419 27.0985 12.185 27.1241 12.2138C27.147 12.2452 27.1574 12.2808 27.154 12.3165C27.1506 12.3522 27.1335 12.3864 27.1049 12.415C27.0749 12.4476 27.0325 12.4727 26.9832 12.4869C26.9352 12.5035 26.8815 12.5085 26.8295 12.5013C26.7718 12.4917 26.7141 12.4725 26.6501 12.439C26.554 12.3911 26.4963 12.3384 26.4771 12.2809C26.4562 12.2157 26.47 12.1469 26.5155 12.0892L26.522 12.094ZM25.7788 11.7298L25.939 11.7921C25.9191 11.8252 25.9146 11.8623 25.9262 11.8975C25.9426 11.9304 25.9745 11.9577 26.0159 11.9742C26.0671 11.9982 26.1055 12.0077 26.144 12.0029C26.1824 12.0029 26.208 11.9886 26.2273 11.9646C26.237 11.9532 26.2415 11.9398 26.2401 11.9263C26.2401 11.9119 26.2273 11.8927 26.208 11.8784C26.1752 11.8487 26.141 11.82 26.1055 11.7921C26.0351 11.7394 25.9902 11.6963 25.9774 11.6579C25.9669 11.6333 25.9638 11.6072 25.9682 11.5816C25.9727 11.5559 25.9845 11.5313 26.003 11.5094C26.0274 11.4798 26.0631 11.4565 26.1055 11.4423C26.1496 11.4271 26.1986 11.4221 26.2465 11.4279C26.3057 11.4354 26.3624 11.4517 26.413 11.4759C26.5091 11.5238 26.5668 11.5717 26.586 11.6244C26.5977 11.6513 26.6014 11.6798 26.597 11.708C26.5926 11.7361 26.5801 11.7632 26.5604 11.7873L26.4002 11.7202C26.4195 11.6867 26.4259 11.6627 26.413 11.6388C26.4002 11.6148 26.3746 11.5909 26.3298 11.5717C26.2943 11.5527 26.2517 11.5426 26.208 11.5429C26.1975 11.5435 26.1873 11.5459 26.1784 11.5501C26.1695 11.5543 26.162 11.5601 26.1568 11.5669C26.144 11.5813 26.144 11.5957 26.1504 11.6148C26.1568 11.634 26.1952 11.6723 26.2593 11.7202C26.3234 11.7682 26.3682 11.8065 26.3874 11.8352C26.4131 11.8653 26.4267 11.9002 26.4267 11.9359C26.4267 11.9715 26.4131 12.0064 26.3874 12.0365C26.3598 12.0699 26.3197 12.0966 26.2721 12.1132C26.2241 12.1297 26.1704 12.1347 26.1184 12.1275C26.0524 12.1192 25.9893 12.1013 25.9326 12.0748C25.8498 12.0418 25.786 11.9873 25.7532 11.9215C25.7284 11.8575 25.7376 11.7889 25.7788 11.7298ZM24.8691 11.5477L25.3368 10.9727L25.9005 11.2363L25.8237 11.3321L25.4137 11.1404L25.3112 11.2698L25.6955 11.4471L25.6123 11.5429L25.2279 11.3657L25.0998 11.5238L25.529 11.7154L25.4521 11.8113L24.8755 11.5477H24.8691ZM23.543 10.7332L23.6135 10.6373L23.9595 10.7667L23.7993 11.0063C23.748 11.0159 23.684 11.0207 23.6071 11.0159C23.5333 11.0098 23.4616 10.9935 23.3957 10.9679C23.3182 10.9397 23.2519 10.8967 23.2035 10.8434C23.1595 10.7938 23.1371 10.7352 23.1395 10.6757C23.1427 10.6137 23.1646 10.5531 23.2035 10.4984C23.242 10.4407 23.2993 10.3913 23.3701 10.3546C23.4378 10.3196 23.5184 10.3012 23.6007 10.3019C23.6648 10.3019 23.7288 10.3163 23.8057 10.3498C23.9082 10.3834 23.9723 10.4313 24.0043 10.484C24.0376 10.5363 24.0444 10.5959 24.0235 10.6517L23.8505 10.6134C23.8611 10.5813 23.8566 10.5474 23.8377 10.5175C23.8185 10.4888 23.7865 10.4696 23.7352 10.4504C23.7054 10.4377 23.6722 10.4298 23.638 10.4273C23.6038 10.4249 23.5692 10.4278 23.5366 10.4361C23.4726 10.4504 23.4149 10.4936 23.3701 10.5607C23.3252 10.6277 23.306 10.69 23.3252 10.7427C23.3341 10.7677 23.3501 10.791 23.3723 10.8109C23.3944 10.8307 23.4221 10.8467 23.4534 10.8577C23.4854 10.8721 23.5238 10.8817 23.5623 10.8817C23.6005 10.886 23.6394 10.886 23.6776 10.8817L23.7288 10.805L23.543 10.7332ZM17.7646 9.66461L17.8927 8.99378L18.1618 9.02732L18.2323 9.49691L18.4821 9.06566L18.7512 9.09441L18.623 9.75566L18.4501 9.73649L18.559 9.2142L18.2771 9.71732L18.1041 9.69816L18.0337 9.1567L17.9312 9.68378L17.7646 9.66461ZM16.8613 9.58316L16.9446 8.91232L17.6045 8.96024L17.5916 9.07524L17.1112 9.0417L17.092 9.18545L17.5404 9.21899L17.5212 9.33399L17.0727 9.30045L17.0535 9.48253L17.5532 9.51607L17.5404 9.63107L16.8613 9.58316Z" fill="#309E3A"/>
<path d="M13.8707 9.16656C13.8707 9.09469 13.8899 9.04198 13.9155 8.99406C13.938 8.95999 13.9683 8.92916 14.0052 8.90302C14.0381 8.87823 14.0773 8.85867 14.1205 8.84552C14.1846 8.83115 14.2486 8.82156 14.3127 8.82156C14.4472 8.82156 14.5497 8.8599 14.633 8.9174C14.6727 8.95403 14.7021 8.9962 14.7197 9.04145C14.7373 9.0867 14.7427 9.13412 14.7355 9.18094C14.7355 9.28636 14.6907 9.3726 14.6074 9.4349C14.5646 9.46448 14.514 9.48702 14.4588 9.50105C14.4036 9.51509 14.3451 9.5203 14.2871 9.51636C14.2298 9.51679 14.173 9.50852 14.1202 9.49204C14.0673 9.47557 14.0195 9.45124 13.9796 9.42052C13.8999 9.34995 13.8607 9.25865 13.8707 9.16656Z" fill="#309E3A"/>
<path d="M14.0557 9.16686C14.0557 9.23873 14.0749 9.29623 14.1197 9.33936C14.1646 9.37769 14.2222 9.40165 14.2991 9.40165C14.3324 9.40339 14.3657 9.39956 14.3967 9.39044C14.4278 9.38133 14.4557 9.36715 14.4785 9.34894C14.5233 9.31061 14.5425 9.25311 14.5489 9.17165C14.5489 9.09498 14.5361 9.03748 14.4849 8.99915C14.464 8.97983 14.4377 8.96423 14.4078 8.95346C14.3779 8.94268 14.3451 8.93701 14.3119 8.93686C14.2782 8.93605 14.2447 8.94078 14.2137 8.95072C14.1827 8.96065 14.155 8.97555 14.1325 8.99436C14.0813 9.03269 14.0621 9.09019 14.0557 9.16686Z" fill="#F7FFFF"/>
<path d="M14.9268 9.51153L14.9396 8.8407H15.3239C15.42 8.8407 15.4841 8.85028 15.5289 8.86466C15.5738 8.87424 15.6058 8.8982 15.6314 8.92695C15.6571 8.9557 15.6699 8.99403 15.6699 9.03716C15.6704 9.08325 15.6475 9.12777 15.6058 9.16174C15.5585 9.19492 15.4975 9.21518 15.4329 9.21924L15.5289 9.27674C15.5546 9.29591 15.5866 9.33424 15.625 9.38695L15.7339 9.52111H15.5161L15.388 9.36778L15.2983 9.27195C15.2828 9.25876 15.2629 9.24885 15.2407 9.2432C15.2115 9.23684 15.1813 9.23361 15.151 9.23361H15.1125V9.51153H14.9268Z" fill="#309E3A"/>
<path d="M15.1182 9.12779H15.2466C15.3365 9.12779 15.3942 9.12779 15.4135 9.11821C15.4328 9.11821 15.452 9.10383 15.4649 9.09425C15.4777 9.08467 15.4841 9.06071 15.4841 9.04633C15.4841 9.01758 15.4777 8.99842 15.4584 8.98883C15.4456 8.97446 15.4199 8.96488 15.3942 8.96008H15.2658L15.1182 8.95529V9.123V9.12779Z" fill="white"/>
<path d="M15.9511 8.87405L16.2842 8.88843C16.3547 8.88843 16.4123 8.89322 16.4508 8.9028C16.5006 8.91633 16.5448 8.93948 16.5789 8.96989C16.6158 9.00339 16.6421 9.04271 16.6558 9.08489C16.675 9.12801 16.6814 9.18072 16.675 9.24301C16.6749 9.29192 16.6641 9.34048 16.643 9.38676C16.6173 9.43468 16.5789 9.47301 16.5341 9.50176C16.4967 9.52476 16.4529 9.54115 16.4059 9.54968C16.3675 9.55926 16.3098 9.55926 16.2458 9.55926L15.9062 9.54489L15.9511 8.87405Z" fill="#309E3A"/>
<path d="M16.1249 8.99402L16.0928 9.43964H16.3367C16.3688 9.43964 16.3945 9.43006 16.4138 9.41569C16.433 9.40131 16.4523 9.38214 16.4651 9.35339C16.478 9.32464 16.4908 9.28152 16.4908 9.22881L16.4844 9.10902C16.4752 9.08375 16.4576 9.06066 16.433 9.04194C16.4117 9.02593 16.3852 9.01437 16.356 9.00839C16.3075 9.00033 16.258 8.99552 16.2083 8.99402H16.1249Z" fill="white"/>
<path d="M20.3467 10.0716L20.5581 9.41995L20.84 9.46787L21.045 9.51579C21.0898 9.53495 21.1282 9.5637 21.1475 9.60683C21.1731 9.64516 21.1731 9.68829 21.1603 9.74099C21.1475 9.77933 21.1282 9.81287 21.0962 9.83683C21.0727 9.85787 21.0433 9.87479 21.0101 9.88638C20.9769 9.89797 20.9407 9.90396 20.904 9.90391C20.8592 9.90391 20.7951 9.89433 20.7118 9.87995L20.6029 9.85599L20.5261 10.1052L20.3467 10.0716Z" fill="#309E3A"/>
<path d="M20.693 9.56381L20.6416 9.74589L20.7379 9.76506C20.8021 9.77465 20.8535 9.78423 20.8791 9.77944C20.9041 9.77685 20.9274 9.76855 20.9458 9.75568C20.9642 9.74281 20.9768 9.726 20.9819 9.70756C20.9819 9.6836 20.9819 9.66444 20.969 9.64527C20.9549 9.62579 20.9323 9.61056 20.9048 9.60215L20.7828 9.57819L20.6994 9.56381H20.693Z" fill="white"/>
<path d="M21.1797 10.2588L21.4808 9.62628L21.8331 9.72212C21.9292 9.74607 21.9869 9.77003 22.0253 9.7892C22.0573 9.81316 22.083 9.83712 22.0894 9.87545C22.0958 9.91378 22.1022 9.94732 22.0894 9.98566C22.0637 10.0336 22.0253 10.0671 21.9741 10.0911C21.9228 10.1102 21.8587 10.115 21.7819 10.1054C21.8075 10.1294 21.8331 10.1534 21.8459 10.1821L21.8972 10.3115L21.9356 10.46L21.737 10.4073L21.673 10.2348C21.6613 10.1958 21.6463 10.1574 21.6281 10.1198C21.6196 10.1049 21.6064 10.0918 21.5897 10.0815C21.5769 10.0671 21.5513 10.0575 21.5064 10.0479L21.4744 10.0384L21.3463 10.3067L21.1797 10.2588Z" fill="#309E3A"/>
<path d="M21.526 9.93776L21.6479 9.9713C21.7314 9.99526 21.7828 10.0048 21.8084 10.0048C21.8277 10.0048 21.847 10.0048 21.8662 9.99047C21.8855 9.98088 21.8983 9.96651 21.9047 9.94734C21.9176 9.92817 21.9176 9.90901 21.9047 9.88984C21.8952 9.87127 21.877 9.85593 21.8534 9.84672L21.725 9.81317L21.5966 9.77963L21.5195 9.93776H21.526Z" fill="white"/>
<path d="M22.2299 10.2352C22.2519 10.1791 22.289 10.1269 22.3388 10.0819C22.3712 10.0529 22.4102 10.0286 22.4541 10.01C22.4938 9.9932 22.5372 9.98185 22.5822 9.97644C22.6463 9.97644 22.7103 9.97644 22.7808 9.99561C22.8381 10.0062 22.8917 10.0258 22.9381 10.053C22.9845 10.0803 23.0226 10.1146 23.0499 10.1537C23.1011 10.2304 23.1011 10.3214 23.0627 10.4269C23.031 10.5174 22.9527 10.5949 22.8449 10.6425C22.7488 10.6856 22.6335 10.6904 22.5118 10.6616C22.4546 10.6508 22.4012 10.6311 22.3549 10.6039C22.3085 10.5766 22.2703 10.5424 22.2427 10.5035C22.217 10.4616 22.2027 10.4164 22.2005 10.3703C22.1983 10.3243 22.2083 10.2783 22.2299 10.2352Z" fill="#309E3A"/>
<path d="M22.4094 10.273C22.3838 10.3449 22.3774 10.4072 22.4094 10.4551C22.4414 10.503 22.4863 10.5318 22.5567 10.551C22.6208 10.5653 22.6849 10.5605 22.7489 10.5318C22.813 10.5078 22.8514 10.4551 22.8834 10.3785C22.9155 10.3066 22.9155 10.2491 22.8834 10.2012C22.8708 10.1784 22.8516 10.1581 22.8273 10.1415C22.8029 10.1249 22.774 10.1126 22.7425 10.1053C22.711 10.0972 22.6775 10.0943 22.6443 10.0967C22.6111 10.0992 22.5791 10.1071 22.5503 10.1197C22.4863 10.1485 22.4414 10.1964 22.4094 10.273Z" fill="white"/>
<path d="M23.9785 11.1696L24.3885 10.5754L24.728 10.7048C24.792 10.7278 24.8505 10.7585 24.901 10.7958C24.933 10.8198 24.9523 10.8485 24.9523 10.8869C24.9523 10.9252 24.9523 10.9587 24.9266 10.9923C24.902 11.0354 24.8561 11.0697 24.7985 11.0881C24.7345 11.0977 24.6704 11.0977 24.5999 11.0785C24.6255 11.1073 24.6384 11.136 24.6512 11.16C24.664 11.1887 24.6704 11.2319 24.6768 11.2942L24.6896 11.4475L24.4974 11.3756L24.4718 11.1983C24.4688 11.1581 24.4623 11.1181 24.4526 11.0785C24.4482 11.0606 24.4371 11.044 24.4205 11.0306L24.3437 10.9971L24.3116 10.9827L24.1387 11.2319L23.9785 11.1696Z" fill="#309E3A"/>
<path d="M24.376 10.8864L24.498 10.9343C24.575 10.963 24.6264 10.9822 24.6456 10.9822C24.6649 10.9822 24.6906 10.9822 24.7098 10.9726C24.7291 10.9678 24.7419 10.9534 24.7548 10.9343C24.7676 10.9151 24.774 10.8959 24.7676 10.8768C24.7597 10.8577 24.744 10.841 24.7227 10.8289C24.6851 10.8117 24.6465 10.7957 24.6071 10.7809L24.4787 10.733L24.376 10.8864Z" fill="white"/>
<path d="M27.2973 12.396C27.3387 12.3468 27.3932 12.3044 27.4574 12.2714C27.5005 12.2508 27.5483 12.2362 27.5984 12.2283C27.6449 12.2212 27.6928 12.2212 27.7393 12.2283C27.8034 12.2379 27.861 12.2571 27.9187 12.2858C27.9685 12.309 28.0114 12.3398 28.0445 12.3761C28.0776 12.4124 28.1002 12.4534 28.1109 12.4966C28.1301 12.5781 28.0981 12.6691 28.0212 12.7602C27.9569 12.8394 27.8532 12.8962 27.7329 12.9183C27.6756 12.9276 27.6162 12.9277 27.5588 12.9186C27.5014 12.9095 27.4472 12.8915 27.3998 12.8656C27.3499 12.8424 27.3071 12.8116 27.274 12.7753C27.2409 12.739 27.2183 12.698 27.2076 12.6548C27.1884 12.5685 27.2204 12.4823 27.2973 12.396Z" fill="#309E3A"/>
<path d="M27.457 12.4726C27.393 12.5349 27.3737 12.5924 27.3866 12.6451C27.3913 12.6694 27.4029 12.6926 27.4205 12.7133C27.4382 12.7339 27.4616 12.7515 27.4891 12.7649C27.5531 12.7984 27.6172 12.808 27.6812 12.7936C27.7453 12.7793 27.8094 12.7457 27.867 12.6786C27.9247 12.6115 27.9503 12.554 27.9375 12.5061C27.9311 12.4582 27.8927 12.4151 27.835 12.3815C27.7773 12.348 27.7069 12.3432 27.6428 12.3576C27.5787 12.3672 27.5147 12.4055 27.4506 12.4726H27.457Z" fill="white"/>
<path d="M19.334 9.79878L19.4813 9.32919L19.9426 9.41065L19.9234 9.48732L19.5838 9.42982L19.5518 9.53523L19.8657 9.58794L19.8401 9.6694L19.5262 9.6119L19.4877 9.74128L19.8401 9.80357L19.8145 9.88023L19.334 9.79878Z" fill="#309E3A"/>
</svg>
